<svg xmlns="http://www.w3.org/2000/svg" xmlns:xlink="http://www.w3.org/1999/xlink" preserveAspectRatio="xMidYMid meet" version="1.0" viewBox="21.0 -4.1 472.9 518.0" zoomAndPan="magnify" style="fill: rgb(255, 255, 255);" original_string_length="3430" width="1461px" height="1600px"><g><g id="__id0_s6z0oiuixb"><path d="M70.988,351.061h60c5.522,0,10-4.478,10-10c0-5.522-4.478-10-10-10h-60c-5.522,0-10,4.478-10,10 C60.988,346.583,65.465,351.061,70.988,351.061z" style="fill: inherit;"/><path d="M70.988,311.061h80c5.522,0,10-4.478,10-10c0-5.522-4.478-10-10-10h-80c-5.522,0-10,4.478-10,10 C60.988,306.583,65.465,311.061,70.988,311.061z" style="fill: inherit;"/><path d="M70.988,271.061h90c5.522,0,10-4.478,10-10c0-5.522-4.478-10-10-10h-90c-5.522,0-10,4.477-10,10 C60.988,266.583,65.465,271.061,70.988,271.061z" style="fill: inherit;"/><path d="M70.988,231.061h50c5.522,0,10-4.478,10-10c0-5.523-4.478-10-10-10h-50c-5.522,0-10,4.477-10,10 C60.988,226.583,65.465,231.061,70.988,231.061z" style="fill: inherit;"/><path d="M70.988,391.311h90c5.522,0,10-4.478,10-10c0-5.522-4.478-10-10-10h-90c-5.522,0-10,4.478-10,10 C60.988,386.833,65.465,391.311,70.988,391.311z" style="fill: inherit;"/><path d="M70.988,431.311h110c5.522,0,10-4.478,10-10c0-5.522-4.478-10-10-10h-110c-5.522,0-10,4.478-10,10 C60.988,426.833,65.465,431.311,70.988,431.311z" style="fill: inherit;"/><path d="M280.988,451.311h-210c-5.522,0-10,4.478-10,10c0,5.522,4.478,10,10,10h210c5.522,0,10-4.478,10-10 C290.988,455.789,286.51,451.311,280.988,451.311z" style="fill: inherit;"/><path d="M80.988,140.939h150c5.522,0,10-4.477,10-10v-70c0-5.522-4.478-10-10-10h-150c-5.522,0-10,4.478-10,10v70 C70.988,136.461,75.465,140.939,80.988,140.939z M90.988,70.939h130v50h-130V70.939z" style="fill: inherit;"/><path d="M243.191,263.229c-29.556,29.557-29.556,77.648,0,107.206c29.557,29.557,77.65,29.557,107.207,0 c29.586-29.586,29.586-77.619-0.001-107.206C320.809,233.641,272.778,233.642,243.191,263.229z M336.255,356.292 c-21.758,21.76-57.162,21.762-78.922,0c-21.759-21.759-21.759-57.163,0-78.921c10.521-10.521,24.534-16.315,39.46-16.315 c30.878,0,55.776,24.888,55.776,55.776C352.57,331.758,346.776,345.772,336.255,356.292z" style="fill: inherit;"/><path d="M482.239,459.85l-61.132-61.131c-3.906-3.904-10.236-3.904-14.143,0l-7.069,7.069l-14.451-14.45 c22.389-26.6,30.905-60.978,25.542-93.497c-0.014-178.306,0.088-167.355-0.183-168.778c-0.391-2.001-1.376-3.825-2.746-5.195 C280.076-4.053,287.802,3.226,285.596,2.07c-1.336-0.695-2.961-1.131-4.608-1.131h-220c-22.056,0-40,17.944-40,40v430.122 c0,22.056,17.944,40,40,40h310c21.277,0,38.722-16.701,39.928-37.681l28.898,28.898c11.695,11.695,30.729,11.696,42.425,0h0.001 C493.937,490.581,493.937,471.547,482.239,459.85z M364.539,384.577c-37.355,37.355-98.135,37.355-135.49,0 c-37.354-37.355-37.354-98.135,0-135.49c37.355-37.355,98.136-37.355,135.49,0C401.894,286.442,401.894,347.222,364.539,384.577z M290.988,35.082l85.857,85.857h-85.857V35.082z M390.988,471.061c0,11.028-8.972,20-20,20h-310c-11.028,0-20-8.972-20-20V40.939 c0-11.028,8.972-20,20-20h210v110c0,5.523,4.478,10,10,10h110v108.519c-41.859-58.454-125.888-64.705-176.081-14.514 c-45.152,45.153-45.152,118.623,0,163.775c42.542,42.54,110.686,45.235,156.396,6.762l14.45,14.45l-7.072,7.072 c-3.905,3.905-3.905,10.237,0,14.142l12.307,12.307V471.061z M468.097,488.135c-3.897,3.898-10.242,3.898-14.142,0l-54.06-54.061 c1.385-1.385-2.497,2.497,14.142-14.142l54.06,54.06C471.996,477.892,471.996,484.236,468.097,488.135z" style="fill: inherit;"/></g></g></svg>